<svg width="45" height="43" viewBox="0 0 45 43" fill="none" xmlns="http://www.w3.org/2000/svg">
<path d="M22.5 0C10.125 0 0 9.57792 0 21.3743C0 32.0402 8.23499 40.8928 18.99 42.4927V27.5605H13.275V21.3743H18.99V16.66C18.99 11.3058 22.3425 8.36201 27.495 8.36201C29.9475 8.36201 32.5125 8.76732 32.5125 8.76732V14.0362H29.6775C26.8875 14.0362 26.01 15.6788 26.01 17.364V21.3743H32.265L31.2525 27.5605H26.01V42.4927C31.312 41.6988 36.1399 39.1341 39.6223 35.2614C43.1047 31.3887 45.012 26.4633 44.9999 21.3743C44.9999 9.57792 34.875 0 22.5 0Z" fill="#CACACA"/>
</svg>
