<svg width="45" height="43" viewBox="0 0 45 43" fill="none" xmlns="http://www.w3.org/2000/svg">
<path d="M22.5 0C10.074 0 0 9.51228 0 21.2463C0 32.9804 10.074 42.4927 22.5 42.4927C34.926 42.4927 45 32.9804 45 21.2463C45 9.51228 34.926 0 22.5 0ZM33.9132 23.5442C34.9619 24.5114 36.0714 25.4217 37.0128 26.4889C37.4299 26.961 37.823 27.4492 38.1222 27.9982C38.5495 28.7811 38.1637 29.6397 37.4216 29.6862L32.812 29.6853C31.6215 29.7784 30.6741 29.325 29.8754 28.5564C29.2378 27.9439 28.6462 27.2896 28.0321 26.6563C27.7812 26.3963 27.517 26.1516 27.2021 25.959C26.5737 25.573 26.0277 25.6912 25.6677 26.3111C25.3008 26.9419 25.217 27.6409 25.182 28.3429C25.1319 29.3693 24.8041 29.6375 23.7135 29.6858C21.3832 29.7888 19.1721 29.4549 17.117 28.3456C15.3041 27.367 13.901 25.986 12.6783 24.4223C10.2973 21.3741 8.47381 18.0286 6.8354 14.5871C6.46665 13.812 6.73642 13.3973 7.64194 13.3812C9.14639 13.3538 10.6508 13.3573 12.1553 13.3799C12.7676 13.389 13.1727 13.7198 13.4079 14.2654C14.2209 16.1542 15.2176 17.9513 16.4665 19.6179C16.7994 20.0618 17.1391 20.5043 17.623 20.8177C18.157 21.1637 18.5639 21.0494 18.8158 20.4865C18.9769 20.1287 19.0464 19.7462 19.0814 19.3628C19.2011 18.0495 19.2153 16.7367 19.0082 15.4286C18.8793 14.6101 18.3918 14.0815 17.5277 13.9267C17.0876 13.8481 17.152 13.6942 17.3661 13.4568C17.7376 13.0464 18.0856 12.7926 18.7812 12.7926L23.9893 12.7917C24.8101 12.9439 24.9942 13.2916 25.1056 14.0724L25.1102 19.5375C25.1006 19.8396 25.2709 20.7351 25.8454 20.9329C26.3058 21.0764 26.6096 20.7277 26.8849 20.4526C28.1339 19.201 29.0237 17.7239 29.8206 16.195C30.1723 15.5208 30.4757 14.8231 30.7703 14.1241C30.9895 13.6072 31.3301 13.3529 31.9479 13.3616L36.9631 13.3673C37.1108 13.3673 37.2609 13.3686 37.4073 13.3925C38.2525 13.529 38.4841 13.8724 38.2226 14.651C37.811 15.8742 37.0114 16.8932 36.2297 17.9147C35.3919 19.0085 34.4983 20.0639 33.6687 21.1624C32.9064 22.1666 32.9667 22.6722 33.9132 23.5442Z" fill="#CACACA"/>
</svg>
